<mxfile host="app.diagrams.net" modified="2024-07-02T09:30:00.220Z" agent="Mozilla/5.0 (Windows NT 10.0; Win64; x64) AppleWebKit/537.36 (KHTML, like Gecko) Chrome/126.0.0.0 Safari/537.36" version="24.6.4" etag="uXGoqrSEj4jcU-9FcYsb" type="github">
  <diagram name="第 1 页" id="gAu0vI9gDwJYPG3W7Mz2">
    <mxGraphModel>
      <root>
        <mxCell id="0" />
        <mxCell id="1" parent="0" />
      </root>
    </mxGraphModel>
  </diagram>
</mxfile>
